<svg width="88" height="84" viewBox="0 0 88 84" fill="none" xmlns="http://www.w3.org/2000/svg">
  <rect x="17" y="15" width="54" height="54" rx="14" fill="#4A81FF"/>
  <path d="M44 28.8L45.38 34.62C45.66 35.8 46.58 36.72 47.76 37L53.58 38.38L47.76 39.76C46.58 40.04 45.66 40.96 45.38 42.14L44 47.96L42.62 42.14C42.34 40.96 41.42 40.04 40.24 39.76L34.42 38.38L40.24 37C41.42 36.72 42.34 35.8 42.62 34.62L44 28.8Z" stroke="#EDF4FF" stroke-width="2.6" stroke-linecap="round" stroke-linejoin="round"/>
  <path d="M32.4 44.6L32.95 46.95C33.1 47.55 33.55 48 34.15 48.15L36.5 48.7L34.15 49.25C33.55 49.4 33.1 49.85 32.95 50.45L32.4 52.8L31.85 50.45C31.7 49.85 31.25 49.4 30.65 49.25L28.3 48.7L30.65 48.15C31.25 48 31.7 47.55 31.85 46.95L32.4 44.6Z" stroke="#EDF4FF" stroke-width="2.2" stroke-linecap="round" stroke-linejoin="round"/>
</svg>
